# xmcd
# 
# Track frame offsets:
#     150
#     18490
#     34928
#     57121
#     76088
#     91009
#     110748
#     126646
#     140547
#     157977
#     172595
#     188626
#     201058
# 
# Disc length: 2885
# 
# Revision: 2
# Processed by: cddbd v1.5.2PL0 Copyright (c) Steve Scherf et al.
# Submitted via: fre:ac v1.0.17
# 
DISCID=a00b430d
DTITLE=Various Artist - Henki Kulkee 3
DYEAR=2005
DGENRE=Gospel
TTITLE0=Johanna Iivanainen - Kukaan ei n‰‰ mun syd‰nt‰ niin (Nobody Knows The Trouble I've Seen)
TTITLE1=Jore Marjaranta - Kulkija (Wayfaring Stranger)
TTITLE2=Hurmerinta, Eriksson, Iivanainen, Hietanen, Marjaranta - Meid‰n mies (One of Us)
TTITLE3=Anna Eriksson - Henki kulkee (Jesus Loves Me)
TTITLE4=Pentti Hietanen - Rannalla virran (Down by The Riverside)
TTITLE5=Johanna Iivanainen - Avainlapsi (Sometimes I Feel Like A Motherless Child)
TTITLE6=Anna Eriksson, Pauli Hanhiniemi - Kotia p‰in (Swing Low Chariot)
TTITLE7=Maarit Hurmerinta - Kuinka kaunista on
TTITLE8=Pentti Hietanen - Rukous (My Tribute)
TTITLE9=Maija sariola, Johanna Hietala - Kanssani rantaan k‰y (Down to The River to Pray)
TTITLE10=Kaartamo, Kettunen, Kuustonen - Oi armo suur' (Amazing Grace)
TTITLE11=Club for Five - Oi Herra, luoksein j‰‰ (Virsi 555)
TTITLE12=Tarja Turunen - En etsi valtaa, loistoa
EXTD=
EXTT0=
EXTT1=
EXTT2=
EXTT3=
EXTT4=
EXTT5=
EXTT6=
EXTT7=
EXTT8=
EXTT9=
EXTT10=
EXTT11=
EXTT12=
PLAYORDER=
